<svg xmlns="http://www.w3.org/2000/svg" xmlns:xlink="http://www.w3.org/1999/xlink" width="250" zoomAndPan="magnify" viewBox="0 0 187.5 187.499992" height="250" preserveAspectRatio="xMidYMid meet" version="1.0"><path fill="#ffffff" d="M 93.5 0 C 91.96875 0 90.441406 0.0390625 88.914062 0.113281 C 87.382812 0.1875 85.859375 0.300781 84.335938 0.449219 C 82.8125 0.601562 81.292969 0.789062 79.78125 1.011719 C 78.269531 1.238281 76.761719 1.5 75.257812 1.796875 C 73.757812 2.09375 72.265625 2.429688 70.78125 2.800781 C 69.296875 3.175781 67.824219 3.582031 66.359375 4.027344 C 64.894531 4.46875 63.441406 4.949219 62 5.464844 C 60.558594 5.980469 59.132812 6.53125 57.71875 7.117188 C 56.304688 7.703125 54.90625 8.324219 53.523438 8.976562 C 52.140625 9.632812 50.773438 10.320312 49.425781 11.039062 C 48.074219 11.761719 46.746094 12.515625 45.433594 13.300781 C 44.121094 14.089844 42.828125 14.90625 41.554688 15.757812 C 40.28125 16.609375 39.03125 17.488281 37.800781 18.398438 C 36.574219 19.3125 35.367188 20.253906 34.183594 21.222656 C 33 22.195312 31.84375 23.195312 30.710938 24.222656 C 29.574219 25.25 28.46875 26.304688 27.386719 27.386719 C 26.304688 28.46875 25.25 29.574219 24.222656 30.710938 C 23.195312 31.84375 22.195312 33 21.222656 34.183594 C 20.253906 35.367188 19.3125 36.574219 18.398438 37.800781 C 17.488281 39.03125 16.609375 40.28125 15.757812 41.554688 C 14.90625 42.828125 14.089844 44.121094 13.300781 45.433594 C 12.515625 46.746094 11.761719 48.074219 11.039062 49.425781 C 10.320312 50.773438 9.632812 52.140625 8.976562 53.523438 C 8.324219 54.90625 7.703125 56.304688 7.117188 57.71875 C 6.53125 59.132812 5.980469 60.558594 5.464844 62 C 4.949219 63.441406 4.46875 64.894531 4.027344 66.359375 C 3.582031 67.824219 3.175781 69.296875 2.800781 70.78125 C 2.429688 72.265625 2.09375 73.757812 1.796875 75.257812 C 1.5 76.761719 1.238281 78.269531 1.011719 79.78125 C 0.789062 81.292969 0.601562 82.8125 0.449219 84.335938 C 0.300781 85.859375 0.1875 87.382812 0.113281 88.914062 C 0.0390625 90.441406 0 91.96875 0 93.5 C 0 95.03125 0.0390625 96.558594 0.113281 98.089844 C 0.1875 99.617188 0.300781 101.140625 0.449219 102.664062 C 0.601562 104.1875 0.789062 105.707031 1.011719 107.21875 C 1.238281 108.734375 1.5 110.242188 1.796875 111.742188 C 2.09375 113.242188 2.429688 114.734375 2.800781 116.21875 C 3.175781 117.703125 3.582031 119.179688 4.027344 120.640625 C 4.46875 122.105469 4.949219 123.558594 5.464844 125 C 5.980469 126.441406 6.53125 127.867188 7.117188 129.28125 C 7.703125 130.695312 8.324219 132.09375 8.976562 133.476562 C 9.632812 134.859375 10.320312 136.226562 11.039062 137.578125 C 11.761719 138.925781 12.515625 140.257812 13.300781 141.570312 C 14.089844 142.882812 14.90625 144.175781 15.757812 145.445312 C 16.609375 146.71875 17.488281 147.96875 18.398438 149.199219 C 19.3125 150.429688 20.253906 151.632812 21.222656 152.816406 C 22.195312 154 23.195312 155.15625 24.222656 156.292969 C 25.25 157.425781 26.304688 158.535156 27.386719 159.617188 C 28.46875 160.699219 29.574219 161.753906 30.710938 162.78125 C 31.84375 163.808594 33 164.808594 34.183594 165.777344 C 35.367188 166.75 36.574219 167.691406 37.800781 168.601562 C 39.03125 169.511719 40.28125 170.394531 41.554688 171.242188 C 42.828125 172.09375 44.121094 172.914062 45.433594 173.699219 C 46.746094 174.484375 48.074219 175.238281 49.425781 175.960938 C 50.773438 176.683594 52.140625 177.371094 53.523438 178.023438 C 54.90625 178.679688 56.304688 179.296875 57.71875 179.882812 C 59.132812 180.46875 60.558594 181.019531 62 181.535156 C 63.441406 182.050781 64.894531 182.53125 66.359375 182.976562 C 67.824219 183.417969 69.296875 183.828125 70.78125 184.199219 C 72.265625 184.570312 73.757812 184.90625 75.257812 185.203125 C 76.761719 185.503906 78.269531 185.765625 79.78125 185.988281 C 81.292969 186.214844 82.8125 186.402344 84.335938 186.550781 C 85.859375 186.699219 87.382812 186.8125 88.914062 186.890625 C 90.441406 186.964844 91.96875 187 93.5 187 C 95.03125 187 96.558594 186.964844 98.089844 186.890625 C 99.617188 186.8125 101.140625 186.699219 102.664062 186.550781 C 104.1875 186.402344 105.707031 186.214844 107.21875 185.988281 C 108.734375 185.765625 110.242188 185.503906 111.742188 185.203125 C 113.242188 184.90625 114.734375 184.570312 116.21875 184.199219 C 117.703125 183.828125 119.179688 183.417969 120.640625 182.976562 C 122.105469 182.53125 123.558594 182.050781 125 181.535156 C 126.441406 181.019531 127.867188 180.46875 129.28125 179.882812 C 130.695312 179.296875 132.09375 178.679688 133.476562 178.023438 C 134.859375 177.371094 136.226562 176.683594 137.578125 175.960938 C 138.925781 175.238281 140.257812 174.484375 141.570312 173.699219 C 142.882812 172.914062 144.175781 172.09375 145.445312 171.242188 C 146.71875 170.394531 147.96875 169.511719 149.199219 168.601562 C 150.429688 167.691406 151.632812 166.75 152.816406 165.777344 C 154 164.808594 155.15625 163.808594 156.292969 162.78125 C 157.425781 161.753906 158.535156 160.699219 159.617188 159.617188 C 160.699219 158.535156 161.753906 157.425781 162.78125 156.292969 C 163.808594 155.15625 164.808594 154 165.777344 152.816406 C 166.75 151.632812 167.691406 150.429688 168.601562 149.199219 C 169.511719 147.96875 170.394531 146.71875 171.242188 145.445312 C 172.09375 144.175781 172.914062 142.882812 173.699219 141.570312 C 174.484375 140.257812 175.238281 138.925781 175.960938 137.578125 C 176.683594 136.226562 177.371094 134.859375 178.023438 133.476562 C 178.679688 132.09375 179.296875 130.695312 179.882812 129.28125 C 180.46875 127.867188 181.019531 126.441406 181.535156 125 C 182.050781 123.558594 182.53125 122.105469 182.976562 120.640625 C 183.417969 119.179688 183.828125 117.703125 184.199219 116.21875 C 184.570312 114.734375 184.90625 113.242188 185.203125 111.742188 C 185.503906 110.242188 185.765625 108.734375 185.988281 107.21875 C 186.214844 105.707031 186.402344 104.1875 186.550781 102.664062 C 186.699219 101.140625 186.8125 99.617188 186.890625 98.089844 C 186.964844 96.558594 187 95.03125 187 93.5 C 187 91.96875 186.964844 90.441406 186.890625 88.914062 C 186.8125 87.382812 186.699219 85.859375 186.550781 84.335938 C 186.402344 82.8125 186.214844 81.292969 185.988281 79.78125 C 185.765625 78.269531 185.503906 76.761719 185.203125 75.257812 C 184.90625 73.757812 184.570312 72.265625 184.199219 70.78125 C 183.828125 69.296875 183.417969 67.824219 182.976562 66.359375 C 182.53125 64.894531 182.050781 63.441406 181.535156 62 C 181.019531 60.558594 180.46875 59.132812 179.882812 57.71875 C 179.296875 56.304688 178.679688 54.90625 178.023438 53.523438 C 177.371094 52.140625 176.683594 50.773438 175.960938 49.425781 C 175.238281 48.074219 174.484375 46.746094 173.699219 45.433594 C 172.914062 44.121094 172.09375 42.828125 171.242188 41.554688 C 170.394531 40.28125 169.511719 39.03125 168.601562 37.800781 C 167.691406 36.574219 166.75 35.367188 165.777344 34.183594 C 164.808594 33 163.808594 31.84375 162.78125 30.710938 C 161.753906 29.574219 160.699219 28.46875 159.617188 27.386719 C 158.535156 26.304688 157.425781 25.25 156.292969 24.222656 C 155.15625 23.195312 154 22.195312 152.816406 21.222656 C 151.632812 20.253906 150.429688 19.3125 149.199219 18.398438 C 147.96875 17.488281 146.71875 16.609375 145.445312 15.757812 C 144.175781 14.90625 142.882812 14.089844 141.570312 13.300781 C 140.257812 12.515625 138.925781 11.761719 137.578125 11.039062 C 136.226562 10.320312 134.859375 9.632812 133.476562 8.976562 C 132.09375 8.324219 130.695312 7.703125 129.28125 7.117188 C 127.867188 6.53125 126.441406 5.980469 125 5.464844 C 123.558594 4.949219 122.105469 4.46875 120.640625 4.027344 C 119.179688 3.582031 117.703125 3.175781 116.21875 2.800781 C 114.734375 2.429688 113.242188 2.09375 111.742188 1.796875 C 110.242188 1.5 108.734375 1.238281 107.21875 1.011719 C 105.707031 0.789062 104.1875 0.601562 102.664062 0.449219 C 101.140625 0.300781 99.617188 0.1875 98.089844 0.113281 C 96.558594 0.0390625 95.03125 0 93.5 0 Z M 151.082031 97.785156 C 150.480469 99.230469 149.621094 100.503906 148.511719 101.605469 L 109.550781 140.5625 C 109.304688 140.914062 109.042969 141.25 108.757812 141.570312 C 108.476562 141.890625 108.175781 142.195312 107.859375 142.484375 C 107.542969 142.773438 107.210938 143.042969 106.867188 143.292969 C 106.519531 143.546875 106.160156 143.777344 105.789062 143.988281 C 105.417969 144.203125 105.035156 144.394531 104.644531 144.5625 C 104.25 144.734375 103.851562 144.882812 103.441406 145.007812 C 103.03125 145.136719 102.617188 145.238281 102.199219 145.320312 C 101.777344 145.402344 101.355469 145.460938 100.929688 145.492188 C 100.5 145.527344 100.074219 145.539062 99.648438 145.527344 C 99.21875 145.515625 98.792969 145.476562 98.371094 145.417969 C 97.945312 145.359375 97.527344 145.277344 97.109375 145.171875 C 96.695312 145.066406 96.289062 144.9375 95.886719 144.789062 C 95.488281 144.636719 95.097656 144.464844 94.714844 144.273438 C 94.332031 144.082031 93.960938 143.867188 93.605469 143.632812 C 93.246094 143.398438 92.902344 143.148438 92.570312 142.875 C 92.238281 142.605469 91.925781 142.316406 91.625 142.007812 C 91.328125 141.703125 91.046875 141.378906 90.78125 141.042969 C 90.519531 140.707031 90.273438 140.355469 90.046875 139.992188 C 89.824219 139.628906 89.617188 139.253906 89.433594 138.867188 C 89.25 138.480469 89.089844 138.085938 88.949219 137.679688 C 88.808594 137.277344 88.691406 136.867188 88.59375 136.449219 C 88.5 136.03125 88.425781 135.609375 88.378906 135.183594 C 88.328125 134.761719 88.304688 134.332031 88.300781 133.90625 C 88.296875 133.476562 88.320312 133.050781 88.363281 132.625 C 88.410156 132.199219 88.476562 131.777344 88.566406 131.359375 C 88.660156 130.941406 88.773438 130.53125 88.910156 130.125 C 89.042969 129.71875 89.203125 129.320312 89.382812 128.933594 C 89.5625 128.542969 89.761719 128.167969 89.984375 127.800781 C 90.207031 127.433594 90.445312 127.082031 90.707031 126.742188 C 90.964844 126.402344 91.242188 126.078125 91.539062 125.769531 C 91.835938 125.457031 92.148438 125.167969 92.476562 124.890625 C 92.804688 124.617188 93.144531 124.359375 93.5 124.121094 L 112.433594 105.1875 L 46.75 105.1875 C 45.984375 105.1875 45.222656 105.113281 44.46875 104.964844 C 43.71875 104.8125 42.988281 104.59375 42.277344 104.296875 C 41.570312 104.003906 40.894531 103.644531 40.257812 103.21875 C 39.617188 102.792969 39.027344 102.308594 38.484375 101.765625 C 37.941406 101.222656 37.457031 100.632812 37.03125 99.992188 C 36.605469 99.355469 36.246094 98.683594 35.953125 97.972656 C 35.660156 97.265625 35.4375 96.535156 35.289062 95.78125 C 35.136719 95.027344 35.0625 94.269531 35.0625 93.5 C 35.0625 92.734375 35.136719 91.972656 35.289062 91.21875 C 35.4375 90.46875 35.660156 89.738281 35.953125 89.027344 C 36.246094 88.320312 36.605469 87.644531 37.03125 87.007812 C 37.457031 86.371094 37.941406 85.777344 38.484375 85.234375 C 39.027344 84.695312 39.617188 84.210938 40.257812 83.78125 C 40.894531 83.355469 41.570312 82.996094 42.277344 82.703125 C 42.988281 82.410156 43.71875 82.1875 44.46875 82.039062 C 45.222656 81.886719 45.984375 81.8125 46.75 81.8125 L 112.046875 81.8125 L 93.5 62.878906 C 93.132812 62.644531 92.777344 62.390625 92.4375 62.117188 C 92.097656 61.84375 91.773438 61.554688 91.464844 61.242188 C 91.15625 60.933594 90.867188 60.609375 90.597656 60.265625 C 90.324219 59.921875 90.074219 59.566406 89.84375 59.195312 C 89.613281 58.824219 89.402344 58.445312 89.214844 58.050781 C 89.027344 57.65625 88.859375 57.253906 88.71875 56.839844 C 88.574219 56.429688 88.453125 56.007812 88.359375 55.582031 C 88.261719 55.15625 88.191406 54.726562 88.140625 54.292969 C 88.09375 53.859375 88.070312 53.425781 88.070312 52.988281 C 88.070312 52.550781 88.097656 52.117188 88.144531 51.683594 C 88.195312 51.25 88.269531 50.820312 88.367188 50.394531 C 88.464844 49.96875 88.585938 49.546875 88.730469 49.136719 C 88.875 48.726562 89.042969 48.320312 89.230469 47.929688 C 89.421875 47.535156 89.632812 47.15625 89.863281 46.785156 C 90.097656 46.414062 90.351562 46.058594 90.621094 45.71875 C 90.894531 45.378906 91.183594 45.050781 91.492188 44.742188 C 91.800781 44.433594 92.128906 44.144531 92.46875 43.871094 C 92.808594 43.601562 93.164062 43.347656 93.535156 43.113281 C 93.90625 42.882812 94.285156 42.671875 94.679688 42.480469 C 95.074219 42.292969 95.476562 42.125 95.886719 41.980469 C 96.300781 41.835938 96.71875 41.714844 97.144531 41.617188 C 97.570312 41.519531 98 41.445312 98.433594 41.394531 C 98.867188 41.347656 99.300781 41.320312 99.738281 41.320312 C 100.175781 41.320312 100.609375 41.34375 101.042969 41.390625 C 101.476562 41.4375 101.90625 41.511719 102.332031 41.609375 C 102.757812 41.703125 103.179688 41.824219 103.589844 41.964844 C 104.003906 42.109375 104.40625 42.277344 104.800781 42.464844 C 105.195312 42.652344 105.578125 42.863281 105.945312 43.09375 C 106.316406 43.324219 106.671875 43.574219 107.015625 43.847656 C 107.359375 44.117188 107.683594 44.40625 107.992188 44.714844 C 108.304688 45.023438 108.59375 45.347656 108.867188 45.6875 C 109.140625 46.027344 109.394531 46.382812 109.628906 46.75 L 148.589844 85.707031 C 149.699219 86.808594 150.558594 88.082031 151.160156 89.527344 C 151.664062 90.859375 151.910156 92.238281 151.898438 93.664062 C 151.882812 95.089844 151.613281 96.464844 151.082031 97.785156 Z M 151.082031 97.785156 " fill-opacity="1" fill-rule="nonzero"/></svg>