<svg width="24" height="25" viewBox="0 0 24 25" fill="none" xmlns="http://www.w3.org/2000/svg">
<path d="M11.5 21.9001C5.85 21.9001 1.25 17.3001 1.25 11.6501C1.25 6.00015 5.85 1.40015 11.5 1.40015C17.15 1.40015 21.75 6.00015 21.75 11.6501C21.75 17.3001 17.15 21.9001 11.5 21.9001ZM11.5 2.90015C6.67 2.90015 2.75 6.83015 2.75 11.6501C2.75 16.4701 6.67 20.4001 11.5 20.4001C16.33 20.4001 20.25 16.4701 20.25 11.6501C20.25 6.83015 16.33 2.90015 11.5 2.90015Z" fill="white"/>
<path d="M21.9999 22.9001C21.8099 22.9001 21.6199 22.8301 21.4699 22.6801L19.4699 20.6801C19.1799 20.3901 19.1799 19.9101 19.4699 19.6201C19.7599 19.3301 20.2399 19.3301 20.5299 19.6201L22.5299 21.6201C22.8199 21.9101 22.8199 22.3901 22.5299 22.6801C22.3799 22.8301 22.1899 22.9001 21.9999 22.9001Z" fill="white"/>
</svg>
